<svg viewBox="0 0 18 18" fill="none" xmlns="http://www.w3.org/2000/svg">
    <path d="M2.2567 17.1667L1 17.1667L1 14.8334L2.2567 14.8334C3.77403 14.8334 5.28151 14.8322 6.55134 14.7627C7.18504 14.728 7.73739 14.6774 8.1875 14.6055C8.65675 14.5305 8.93564 14.4439 9.0692 14.3776C9.87212 13.9787 10.5157 13.3484 10.9152 12.5843C11.106 12.2194 11.2321 11.7471 11.2991 10.9483C11.3673 10.1343 11.3683 9.09041 11.3683 7.60093L11.3683 4.72528L8.81027 7.21812L8.02009 6.37502L7.23214 5.53192L11.721 1.15692C12.1626 0.726586 12.8575 0.726586 13.2991 1.15692L17.7902 5.53192L16.2098 7.21812L13.654 4.72756L13.654 7.60093C13.654 9.05049 13.6544 10.2122 13.5759 11.1488C13.496 12.1004 13.3271 12.9248 12.9308 13.6826C12.2976 14.8937 11.2929 15.8684 10.0692 16.4763C9.62651 16.696 9.07831 16.8255 8.54018 16.9115C7.98333 17.0004 7.34625 17.057 6.67411 17.0938C5.33077 17.1673 3.75679 17.1667 2.2567 17.1667Z" fill="currentColor"/>
</svg>
