<svg width="48" height="48" viewBox="0 0 48 48" fill="none" xmlns="http://www.w3.org/2000/svg">

    <path fill-rule="evenodd" clip-rule="evenodd"
        d="M24 6C32.4853 6 36.7279 6 39.364 8.63604C42 11.2721 42 15.5147 42 24C42 32.4853 42 36.7279 39.364 39.364C36.7279 42 32.4853 42 24 42C15.5147 42 11.2721 42 8.63604 39.364C6 36.7279 6 32.4853 6 24C6 15.5147 6 11.2721 8.63604 8.63604C11.2721 6 15.5147 6 24 6ZM31.425 15.7993C31.6927 15.6866 31.9858 15.6477 32.2736 15.6867C32.5614 15.7257 32.8335 15.8411 33.0616 16.021C33.2897 16.2008 33.4654 16.4385 33.5704 16.7093C33.6755 16.9801 33.706 17.2741 33.6589 17.5608L31.2019 32.4642C30.9635 33.9017 29.3862 34.7262 28.0678 34.0101C26.9649 33.411 25.327 32.488 23.8536 31.5249C23.117 31.0428 20.8604 29.4991 21.1377 28.4006C21.376 27.4613 25.1677 23.9318 27.3344 21.8334C28.1848 21.009 27.797 20.5334 26.7927 21.2918C24.2989 23.1746 20.2949 26.0378 18.971 26.8438C17.8032 27.5545 17.1944 27.6758 16.4664 27.5545C15.1382 27.3335 13.9065 26.9912 12.9011 26.5741C11.5426 26.0108 11.6087 24.1431 12.9 23.5993L31.425 15.7993Z"
        fill="currentColor" />

</svg>