<svg width="48" height="48" viewBox="0 0 48 48" fill="none" xmlns="http://www.w3.org/2000/svg">
<g style="mix-blend-mode:difference">
<path d="M8.52 8.52C6 11.064 6 15.132 6 23.28V24.72C6 32.856 6 36.924 8.52 39.48C11.064 42 15.132 42 23.28 42H24.72C32.856 42 36.924 42 39.48 39.48C42 36.936 42 32.868 42 24.72V23.28C42 15.144 42 11.076 39.48 8.52C36.936 6 32.868 6 24.72 6H23.28C15.144 6 11.076 6 8.52 8.52ZM12.072 16.956H16.2C16.332 23.82 19.356 26.724 21.756 27.324V16.956H25.632V22.872C27.996 22.62 30.492 19.92 31.332 16.944H35.196C34.8811 18.4846 34.2517 19.9436 33.3474 21.2299C32.443 22.5163 31.2831 23.6023 29.94 24.42C31.4389 25.1657 32.7625 26.2209 33.8237 27.5157C34.8848 28.8106 35.6593 30.3158 36.096 31.932H31.836C30.924 29.088 28.644 26.88 25.632 26.58V31.932H25.152C16.944 31.932 12.264 26.316 12.072 16.956Z" fill="currentColor"/>
</g>
</svg>
