<svg width="48" height="48" viewBox="0 0 48 48" fill="none" xmlns="http://www.w3.org/2000/svg">
    <g clip-path="url(#clip0_1341_21850)">

        <mask id="mask0_1341_21850" style="mask-type:alpha" maskUnits="userSpaceOnUse" x="6" y="6"
            width="36" height="36">
            <path
                d="M42 42H6V6H42V42ZM24.0052 10.6225C20.3719 10.6225 19.9156 10.6384 18.4881 10.7033C17.0632 10.7685 16.0906 10.9939 15.2395 11.3247C14.3591 11.6663 13.6123 12.1233 12.8684 12.867C12.1238 13.6104 11.6665 14.3566 11.3235 15.236C10.9917 16.0868 10.7658 17.059 10.7017 18.4823C10.6378 19.909 10.6211 20.3651 10.6211 23.9976C10.6211 27.6301 10.6373 28.0845 10.7019 29.5112C10.7675 30.9351 10.9931 31.907 11.3238 32.7575C11.6659 33.6372 12.1233 34.3834 12.8675 35.1268C13.6112 35.8708 14.358 36.3289 15.2378 36.6705C16.0894 37.0013 17.0624 37.2267 18.487 37.2919C19.9148 37.3568 20.3707 37.3727 24.0056 37.3727C27.641 37.3727 28.0958 37.3568 29.5236 37.2919C30.9485 37.2267 31.9223 37.0013 32.7739 36.6705C33.654 36.3289 34.3997 35.8708 35.1434 35.1268C35.8879 34.3834 36.3452 33.6372 36.6882 32.7578C37.0172 31.9071 37.2432 30.9348 37.3101 29.5115C37.3742 28.0848 37.3909 27.63 37.3909 23.9976C37.3909 20.3651 37.3742 19.9093 37.3101 18.4826C37.2432 17.0587 37.0172 16.0868 36.6882 15.2363C36.3452 14.3566 35.8879 13.6104 35.1434 12.867C34.3988 12.123 33.6543 11.666 32.7731 11.3247C31.9198 10.9939 30.9466 10.7685 29.5216 10.7033C28.0942 10.6384 27.6395 10.6225 24.0052 10.6225ZM22.8065 13.0328C23.1629 13.0322 23.5605 13.0328 24.0072 13.0328C27.581 13.0328 28.0046 13.0456 29.4159 13.1097C30.721 13.1693 31.4293 13.3872 31.9011 13.5703C32.5257 13.8127 32.9711 14.1025 33.4393 14.5706C33.9077 15.0388 34.1977 15.4846 34.4409 16.1088C34.6241 16.5797 34.8425 17.2875 34.9018 18.5915C34.966 20.0015 34.98 20.4251 34.98 23.9946C34.98 27.564 34.966 27.9876 34.9018 29.3975C34.8422 30.7016 34.6241 31.4094 34.4409 31.8803C34.1983 32.5044 33.9077 32.9489 33.4393 33.4167C32.9708 33.8849 32.526 34.1747 31.9011 34.4171C31.4298 34.601 30.721 34.8183 29.4159 34.878C28.0049 34.9421 27.581 34.956 24.0072 34.956C20.4332 34.956 20.0096 34.9421 18.5986 34.878C17.2935 34.8178 16.5853 34.5999 16.1132 34.4168C15.4885 34.1744 15.0423 33.8846 14.5739 33.4165C14.1054 32.9483 13.8154 32.5036 13.5722 31.8792C13.389 31.4083 13.1707 30.7005 13.1113 29.3964C13.0471 27.9864 13.0343 27.5629 13.0343 23.9912C13.0343 20.4195 13.0471 19.9981 13.1113 18.5882C13.1709 17.2841 13.389 16.5764 13.5722 16.1049C13.8148 15.4807 14.1054 15.0349 14.5739 14.5667C15.0423 14.0986 15.4885 13.8088 16.1132 13.5658C16.585 13.3819 17.2935 13.1646 18.5986 13.1047C19.8333 13.0489 20.3119 13.0322 22.8065 13.0294V13.0328ZM24.0071 17.1289C20.2111 17.129 17.1335 20.2044 17.1335 23.9976C17.1335 27.7908 20.2112 30.8649 24.0072 30.8649C27.8033 30.8649 30.8799 27.7908 30.8799 23.9976C30.8799 20.2044 27.8031 17.129 24.0071 17.1289ZM24.0072 19.5392C26.4712 19.5392 28.469 21.5352 28.469 23.9976C28.4689 26.4597 26.4712 28.456 24.0072 28.456C21.543 28.456 19.5456 26.4597 19.5456 23.9976C19.5456 21.5352 21.543 19.5392 24.0072 19.5392ZM31.1521 15.2536C30.2654 15.2536 29.5459 15.9717 29.5459 16.858C29.5459 17.7442 30.2654 18.4631 31.1521 18.4631C32.0389 18.4631 32.7583 17.7441 32.7583 16.858C32.7583 15.972 32.0388 15.2531 31.1521 15.2531L31.1521 15.2536Z"
                fill="currentColor" />
        </mask>
        <g mask="url(#mask0_1341_21850)">
            <path
                d="M24.0059 6C16.491 6 14.2932 6.00776 13.866 6.0432C12.3239 6.17143 11.3642 6.41431 10.3188 6.93496C9.51307 7.33516 8.87764 7.79904 8.25053 8.44931C7.10844 9.6352 6.41626 11.0941 6.16569 12.8284C6.04387 13.6703 6.00843 13.842 6.00123 18.1424C5.99847 19.5759 6.00123 21.4625 6.00123 23.9929C6.00123 31.5037 6.00953 33.6999 6.04553 34.1264C6.17012 35.6275 6.40546 36.5718 6.90383 37.6049C7.85627 39.5823 9.6753 41.0667 11.8183 41.6206C12.5603 41.8117 13.3798 41.9169 14.432 41.9668C14.8777 41.9861 19.4212 42 23.9674 42C28.5136 42 33.0598 41.9945 33.4945 41.9723C34.7128 41.915 35.4202 41.82 36.2023 41.6178C38.3592 41.0611 40.145 39.5989 41.1168 37.5938C41.6055 36.5857 41.8533 35.6053 41.9654 34.1826C41.9898 33.8725 42 28.927 42 23.9882C42 19.0486 41.9889 14.1123 41.9646 13.8021C41.851 12.3565 41.6032 11.3844 41.0988 10.3569C40.6849 9.51583 40.2253 8.88771 39.558 8.24549C38.3672 7.10778 36.9108 6.41541 35.1754 6.16506C34.3345 6.04347 34.1671 6.00747 29.8645 6H24.0059Z"
                fill="currentColor" />
            <path
                d="M24.0059 6C16.491 6 14.2932 6.00776 13.866 6.0432C12.3239 6.17143 11.3642 6.41431 10.3188 6.93496C9.51307 7.33516 8.87764 7.79904 8.25053 8.44931C7.10844 9.6352 6.41626 11.0941 6.16569 12.8284C6.04387 13.6703 6.00843 13.842 6.00123 18.1424C5.99847 19.5759 6.00123 21.4625 6.00123 23.9929C6.00123 31.5037 6.00953 33.6999 6.04553 34.1264C6.17012 35.6275 6.40546 36.5718 6.90383 37.6049C7.85627 39.5823 9.6753 41.0667 11.8183 41.6206C12.5603 41.8117 13.3798 41.9169 14.432 41.9668C14.8777 41.9861 19.4212 42 23.9674 42C28.5136 42 33.0598 41.9945 33.4945 41.9723C34.7128 41.915 35.4202 41.82 36.2023 41.6178C38.3592 41.0611 40.145 39.5989 41.1168 37.5938C41.6055 36.5857 41.8533 35.6053 41.9654 34.1826C41.9898 33.8725 42 28.927 42 23.9882C42 19.0486 41.9889 14.1123 41.9646 13.8021C41.851 12.3565 41.6032 11.3844 41.0988 10.3569C40.6849 9.51583 40.2253 8.88771 39.558 8.24549C38.3672 7.10778 36.9108 6.41541 35.1754 6.16506C34.3345 6.04347 34.1671 6.00747 29.8645 6H24.0059Z"
                fill="currentColor" />
            <path
                d="M24.0059 6C16.491 6 14.2932 6.00776 13.866 6.0432C12.3239 6.17143 11.3642 6.41431 10.3188 6.93496C9.51307 7.33516 8.87764 7.79904 8.25053 8.44931C7.10844 9.6352 6.41626 11.0941 6.16569 12.8284C6.04387 13.6703 6.00843 13.842 6.00123 18.1424C5.99847 19.5759 6.00123 21.4625 6.00123 23.9929C6.00123 31.5037 6.00953 33.6999 6.04553 34.1264C6.17012 35.6275 6.40546 36.5718 6.90383 37.6049C7.85627 39.5823 9.6753 41.0667 11.8183 41.6206C12.5603 41.8117 13.3798 41.9169 14.432 41.9668C14.8777 41.9861 19.4212 42 23.9674 42C28.5136 42 33.0598 41.9945 33.4945 41.9723C34.7128 41.915 35.4202 41.82 36.2023 41.6178C38.3592 41.0611 40.145 39.5989 41.1168 37.5938C41.6055 36.5857 41.8533 35.6053 41.9654 34.1826C41.9898 33.8725 42 28.927 42 23.9882C42 19.0486 41.9889 14.1123 41.9646 13.8021C41.851 12.3565 41.6032 11.3844 41.0988 10.3569C40.6849 9.51583 40.2253 8.88771 39.558 8.24549C38.3672 7.10778 36.9108 6.41541 35.1754 6.16506C34.3345 6.04347 34.1671 6.00747 29.8645 6H24.0059Z"
                fill="currentColor" />
            <path
                d="M24.0059 6C16.491 6 14.2932 6.00776 13.866 6.0432C12.3239 6.17143 11.3642 6.41431 10.3188 6.93496C9.51307 7.33516 8.87764 7.79904 8.25053 8.44931C7.10844 9.6352 6.41626 11.0941 6.16569 12.8284C6.04387 13.6703 6.00843 13.842 6.00123 18.1424C5.99847 19.5759 6.00123 21.4625 6.00123 23.9929C6.00123 31.5037 6.00953 33.6999 6.04553 34.1264C6.17012 35.6275 6.40546 36.5718 6.90383 37.6049C7.85627 39.5823 9.6753 41.0667 11.8183 41.6206C12.5603 41.8117 13.3798 41.9169 14.432 41.9668C14.8777 41.9861 19.4212 42 23.9674 42C28.5136 42 33.0598 41.9945 33.4945 41.9723C34.7128 41.915 35.4202 41.82 36.2023 41.6178C38.3592 41.0611 40.145 39.5989 41.1168 37.5938C41.6055 36.5857 41.8533 35.6053 41.9654 34.1826C41.9898 33.8725 42 28.927 42 23.9882C42 19.0486 41.9889 14.1123 41.9646 13.8021C41.851 12.3565 41.6032 11.3844 41.0988 10.3569C40.6849 9.51583 40.2253 8.88771 39.558 8.24549C38.3672 7.10778 36.9108 6.41541 35.1754 6.16506C34.3345 6.04347 34.167 6.00747 29.8645 6H24.0059Z"
                fill="currentColor" />
        </g>

    </g>
    <defs>
        <clipPath id="clip0_1341_21850">
            <rect width="36" height="36" fill="none" transform="translate(6 6)" />
        </clipPath>
    </defs>
</svg>