<svg width="48" height="48" viewBox="0 0 48 48" fill="none" xmlns="http://www.w3.org/2000/svg">

    <path
        d="M24.0209 14.6519C24.7832 14.6519 25.482 14.9482 25.9691 15.4565C26.4561 15.9435 26.7737 16.6424 26.7737 17.4047C26.7737 18.1669 26.4773 18.8446 25.9691 19.3528C25.4821 19.8398 24.7832 20.1575 24.0209 20.1575C23.2586 20.1575 22.581 19.861 22.0728 19.3528C21.5857 18.8657 21.2681 18.1669 21.2681 17.4047C21.2681 16.6424 21.5646 15.9647 22.0728 15.4565C22.5598 14.9694 23.2586 14.6519 24.0209 14.6519Z"
        fill="currentColor" />
    <path fill-rule="evenodd" clip-rule="evenodd"
        d="M24.7412 6.01074C32.8939 6.01074 36.9598 6.01072 39.4802 8.55183C42 11.0717 42 15.1588 42 23.2908V24.7308C42 32.8835 42 36.9494 39.4802 39.4698C36.9603 41.9896 32.8732 41.9896 24.7412 41.9896H23.3012C15.1485 41.9896 11.0826 41.9896 8.54109 39.4698C5.99998 36.9499 6 32.8628 6 24.7308L6.02113 23.3119C6.02113 15.1592 6.02111 11.0933 8.56222 8.55183C11.0821 6.01072 15.1692 6.01074 23.3012 6.01074H24.7412ZM30.4374 23.5457C30.3315 23.3975 30.141 23.3764 30.0351 23.5034C28.341 24.9434 26.2658 25.8751 24.0423 25.8751C21.8188 25.8751 19.7436 24.9434 18.0494 23.5034C17.9224 23.3975 17.7318 23.4187 17.6259 23.5457L15.826 25.981C15.7413 26.108 15.7624 26.2774 15.8682 26.3622C17.3717 27.5903 19.1294 28.4162 20.9506 28.8397L17.4777 35.4889C17.3718 35.6795 17.52 35.9125 17.7318 35.9125H21.4375C21.5434 35.9125 21.6493 35.8489 21.6916 35.7431L24.021 30.2586L26.3503 35.7431C26.3926 35.8489 26.4985 35.9125 26.6044 35.9125H30.2891C30.5008 35.9125 30.6491 35.6795 30.5432 35.4889L27.0914 28.8397C28.9126 28.4163 30.6702 27.5903 32.1736 26.3622C32.2795 26.2775 32.3007 26.108 32.216 25.981L30.4371 23.5457H30.4374ZM24.0209 11.3061C22.3269 11.3061 20.8023 11.9838 19.7011 13.085C18.5999 14.1861 17.9223 15.7107 17.9223 17.4047C17.9223 19.0987 18.6 20.6234 19.7011 21.7245C20.8023 22.8257 22.3269 23.5034 24.0209 23.5034C25.7149 23.5034 27.2396 22.8257 28.3407 21.7245C29.4419 20.6234 30.1196 19.0987 30.1196 17.4047C30.1196 15.7107 29.4418 14.1862 28.3407 13.085C27.2396 11.9837 25.7149 11.3061 24.0209 11.3061Z"
        fill="currentColor" />

</svg>