<svg viewBox="0 0 667 667" fill="none" xmlns="http://www.w3.org/2000/svg">
<path d="M333.333 0C351.742 0 366.666 14.9235 366.666 33.333C366.666 114.296 417.995 166.666 466.666 166.666C485.076 166.666 500 181.591 500 200C500 248.671 552.371 300 633.333 300C651.742 300 666.666 314.923 666.666 333.333C666.666 517.429 517.429 666.666 333.333 666.666C149.238 666.666 0 517.429 0 333.333C0 149.238 149.238 0 333.333 0ZM233.666 433.333C252.075 433.333 267 448.257 267 466.666C267 485.076 252.076 500 233.666 500H233.333C214.924 500 200 485.076 200 466.666C200 448.257 214.924 433.333 233.333 433.333H233.666ZM433.666 433.333C452.075 433.333 467 448.257 467 466.666C467 485.076 452.076 500 433.666 500H433.333C414.923 500 400 485.076 400 466.666C400 448.257 414.924 433.333 433.333 433.333H433.666ZM333.666 266.666C352.076 266.666 367 281.591 367 300C367 318.409 352.075 333.333 333.666 333.333H333.333C314.924 333.333 300 318.409 300 300C300 281.591 314.923 266.666 333.333 266.666H333.666ZM167 233.333C185.409 233.333 200.333 248.257 200.333 266.666C200.333 285.075 185.409 300 167 300H166.666C148.257 300 133.333 285.075 133.333 266.666C133.333 248.257 148.257 233.333 166.666 233.333H167ZM66.666 333.333C66.666 480.61 186.057 600 333.333 600C470.226 600 583.025 496.852 598.251 364.037C519.889 352.255 451.646 301.713 436.472 230.193C364.952 215.018 314.41 146.777 302.628 68.4141C169.814 83.6404 66.666 196.441 66.666 333.333Z" fill="currentColor"/>
</svg>
