<svg width="16" height="17" viewBox="0 0 16 17" fill="none" xmlns="http://www.w3.org/2000/svg">
<path d="M13 6.75195C12.9868 5.48727 12.4538 4.27848 11.5176 3.38867C10.5814 2.49904 9.31732 1.99994 8 2C6.68268 1.99994 5.41865 2.49904 4.48242 3.38867L4.31152 3.55957C3.48149 4.43017 3.01236 5.56629 3 6.75195C3 10.0399 7.40625 13.7004 7.59375 13.8564C7.70692 13.9493 7.85113 14 8 14C8.14887 14 8.29308 13.9493 8.40625 13.8564C8.625 13.7004 13 10.0399 13 6.75195ZM8.6875 6.5C8.6875 6.39539 8.65555 6.28774 8.58789 6.19043C8.51963 6.09235 8.41578 6.00692 8.2832 5.9541C8.14999 5.90113 7.99968 5.88634 7.85449 5.91406C7.70977 5.94173 7.58462 6.00807 7.49219 6.09668C7.40037 6.18483 7.34492 6.29001 7.32324 6.39453C7.3017 6.4985 7.31248 6.60696 7.35645 6.70898C7.40084 6.81187 7.4804 6.91007 7.59473 6.9834C7.70963 7.05709 7.85075 7.09961 8 7.09961V8.59961C7.62149 8.59961 7.25067 8.50525 6.92285 8.32715L6.78516 8.24609C6.47033 8.04415 6.21638 7.76741 6.04688 7.44434L5.97949 7.30371C5.81393 6.91999 5.77009 6.4972 5.85449 6.08984C5.93895 5.68265 6.1473 5.30824 6.45312 5.01465C6.72081 4.75773 7.053 4.57312 7.41602 4.47656L7.57324 4.44043C7.99748 4.35942 8.43727 4.40072 8.83691 4.55957C9.23647 4.71845 9.57801 4.98787 9.81836 5.33301C10.0587 5.67835 10.1875 6.08466 10.1875 6.5L10.1768 6.70801C10.1269 7.18857 9.90572 7.64087 9.54688 7.98535L9.38672 8.12402C8.9974 8.43041 8.50782 8.59961 8 8.59961V7.09961C8.20165 7.09961 8.38314 7.02203 8.50781 6.90234C8.6303 6.78469 8.6875 6.63885 8.6875 6.5ZM14.5 6.75195C14.5 8.96719 13.0827 11.0641 11.9375 12.4385C10.849 13.7448 9.71847 14.73 9.35742 15.0146C9.34305 15.0264 9.32811 15.0374 9.31348 15.0488C9.2992 15.0597 9.28763 15.0698 9.27734 15.0771L9.27637 15.0762C8.90451 15.3527 8.4563 15.5 8 15.5C7.51031 15.5 7.02804 15.3329 6.6416 15.0156L6.63477 15.0088C6.51685 14.9107 5.28745 13.8891 4.07617 12.4404C2.92926 11.0687 1.5 8.97041 1.5 6.75195V6.73633C1.51751 5.05657 2.2252 3.46429 3.44824 2.30176C4.66944 1.14114 6.30647 0.499937 8 0.5L8.31641 0.507813C9.89624 0.582358 11.4068 1.21359 12.5518 2.30176C13.7748 3.46429 14.4825 5.05657 14.5 6.73633V6.75195Z" fill="currentColor"/>
</svg>
