<svg width="21" height="22" viewBox="0 0 21 22" fill="none" xmlns="http://www.w3.org/2000/svg">
<path opacity="0.8" d="M11.8271 0.00409311C9.41661 -0.0668057 7.06957 0.78559 5.26658 2.38691C3.4636 3.98838 2.34019 6.21838 2.12693 8.6203C1.93045 10.8342 2.51069 13.4406 4.46482 15.7404L0.262671 20.3244L1.73728 21.676L5.95994 17.0695C7.73714 18.2321 10.174 19.0667 12.3828 18.8693C14.7831 18.6548 17.0115 17.5318 18.6123 15.7307C20.2129 13.9295 21.0655 11.5854 20.9961 9.17694C20.9266 6.7683 19.9402 4.47665 18.2383 2.77069L18.2363 2.76874C16.5306 1.06407 14.2377 0.0750809 11.8271 0.00409311ZM11.7676 2.00312L12.123 2.02265C13.8931 2.15927 15.5612 2.92349 16.8222 4.18378C18.1642 5.52898 18.9422 7.33555 18.997 9.23456L18.999 9.59003C18.9656 11.3631 18.3006 13.071 17.1172 14.4025C15.8548 15.8229 14.0971 16.708 12.2041 16.8771C10.3111 17.0461 7.99416 16.1741 6.49998 15.0002C4.49998 13.0002 3.95103 10.6909 4.11912 8.79706C4.27677 7.02179 5.06474 5.36575 6.33396 4.12519L6.5947 3.883C8.01637 2.62022 9.86659 1.94731 11.7676 2.00312Z" fill="currentColor"/>
</svg>
