<svg width="32" height="32" viewBox="0 0 32 32" fill="none" xmlns="http://www.w3.org/2000/svg">
<path d="M22.667 29.3333C21.5559 29.3333 20.6114 28.9444 19.8337 28.1667C19.0559 27.3889 18.667 26.4444 18.667 25.3333C18.667 25.2 18.7003 24.8889 18.767 24.4L9.40033 18.9333C9.04477 19.2667 8.63366 19.528 8.16699 19.7173C7.70033 19.9067 7.20033 20.0009 6.66699 20C5.55588 20 4.61144 19.6111 3.83366 18.8333C3.05588 18.0555 2.66699 17.1111 2.66699 16C2.66699 14.8889 3.05588 13.9444 3.83366 13.1667C4.61144 12.3889 5.55588 12 6.66699 12C7.20033 12 7.70033 12.0947 8.16699 12.284C8.63366 12.4733 9.04477 12.7342 9.40033 13.0667L18.767 7.59999C18.7225 7.44443 18.695 7.29466 18.6843 7.15066C18.6737 7.00666 18.6679 6.84532 18.667 6.66666C18.667 5.55555 19.0559 4.6111 19.8337 3.83332C20.6114 3.05555 21.5559 2.66666 22.667 2.66666C23.7781 2.66666 24.7225 3.05555 25.5003 3.83332C26.2781 4.6111 26.667 5.55555 26.667 6.66666C26.667 7.77777 26.2781 8.72221 25.5003 9.49999C24.7225 10.2778 23.7781 10.6667 22.667 10.6667C22.1337 10.6667 21.6337 10.572 21.167 10.3827C20.7003 10.1933 20.2892 9.93243 19.9337 9.59999L10.567 15.0667C10.6114 15.2222 10.6394 15.3724 10.651 15.5173C10.6625 15.6622 10.6679 15.8231 10.667 16C10.6661 16.1769 10.6608 16.3382 10.651 16.484C10.6412 16.6298 10.6132 16.7795 10.567 16.9333L19.9337 22.4C20.2892 22.0667 20.7003 21.8058 21.167 21.6173C21.6337 21.4289 22.1337 21.3342 22.667 21.3333C23.7781 21.3333 24.7225 21.7222 25.5003 22.5C26.2781 23.2778 26.667 24.2222 26.667 25.3333C26.667 26.4444 26.2781 27.3889 25.5003 28.1667C24.7225 28.9444 23.7781 29.3333 22.667 29.3333Z" fill="currentColor"/>
</svg>
